<svg xmlns="http://www.w3.org/2000/svg" display="none">

	<symbol id="power" viewBox="0 0 64 64">
		<g id="Group 6" transform="rotate(90,32,32)">
			<path d="M32 64C40.55 64 48.58 60.67 54.63 54.63C60.67 48.58 64 40.55 64 32C64 23.45 60.67 15.42 54.63 9.37C48.58 3.33 40.55 0 32 0C23.45 0 15.42 3.33 9.37 9.37C3.33 15.42 0 23.45 0 32C0 40.55 3.33 48.58 9.37 54.63C15.42 60.67 23.45 64 32 64ZM10.79 10.79C16.45 5.12 23.99 2 32 2C40.01 2 47.55 5.12 53.21 10.79C58.88 16.45 62 23.99 62 32C62 40.01 58.88 47.55 53.21 53.21C47.55 58.88 40.01 62 32 62C23.99 62 16.45 58.88 10.79 53.21C5.12 47.55 2 40.01 2 32C2 23.99 5.12 16.45 10.79 10.79ZM20 32.02C20 31.46 20.45 31.02 21 31.02L43 31.02C43.55 31.02 44 31.46 44 32.02C44 32.57 43.55 33.02 43 33.02L21 33.02C20.45 33.02 20 32.57 20 32.02Z" />
		</g>
	</symbol>

	<symbol id="star" viewBox="0 0 62 64">
		<path d="M60.2 28.61C61.59 27.53 62.14 25.68 61.57 24.01C61.05 22.5 59.75 21.56 58.17 21.56L43.17 21.56C42.1 21.56 40.77 21.01 40.59 20.49L34.56 3.14C34.01 1.57 32.59 0.56 30.93 0.56C29.26 0.56 27.84 1.57 27.29 3.14L21.26 20.49C21.03 21.16 20.01 21.56 19.17 21.56L4.17 21.56C2.47 21.56 1 22.64 0.43 24.3C-0.12 25.91 0.36 27.61 1.66 28.61L14.64 38.71C15.26 39.19 15.51 40.01 15.26 40.76L9.39 58.36C8.99 59.56 9.18 60.81 9.9 61.81C10.63 62.83 11.81 63.44 13.05 63.44C13.87 63.44 14.66 63.17 15.35 62.66L29.82 51.8C30.46 51.32 31.39 51.32 32.03 51.8L46.51 62.66C47.19 63.17 47.98 63.44 48.8 63.44C50.04 63.44 51.22 62.83 51.96 61.81C52.68 60.81 52.86 59.55 52.46 58.36L46.59 40.76C46.35 40.01 46.59 39.19 47.21 38.71L60.2 28.61ZM44.7 41.39L50.57 59C50.76 59.58 50.68 60.16 50.33 60.64C49.74 61.46 48.56 61.7 47.71 61.06L33.23 50.2C32.56 49.7 31.76 49.43 30.93 49.43C30.09 49.43 29.29 49.7 28.62 50.2L14.15 61.06C13.3 61.7 12.11 61.46 11.52 60.64C11.17 60.16 11.09 59.58 11.29 59L17.16 41.39C17.67 39.84 17.15 38.13 15.87 37.14L2.88 27.04C2.14 26.46 2.11 25.58 2.33 24.95C2.55 24.31 3.16 23.56 4.17 23.56L19.17 23.56C20.68 23.56 22.57 22.81 23.15 21.15L29.18 3.8C29.5 2.89 30.29 2.56 30.93 2.56C31.56 2.56 32.35 2.89 32.67 3.8L38.71 21.15C39.32 22.91 41.76 23.56 43.17 23.56L58.17 23.56C59.19 23.56 59.56 24.33 59.68 24.66C59.92 25.38 59.8 26.39 58.97 27.04L45.98 37.14C44.7 38.13 44.18 39.84 44.7 41.39Z" />
	</symbol>

	<symbol id="equalizer" viewBox="0 0 64 49">
		<path d="M2 20.5L2 28.5C2 29.05 1.55 29.5 1 29.5C0.45 29.5 0 29.05 0 28.5L0 20.5C0 19.95 0.45 19.5 1 19.5C1.55 19.5 2 19.95 2 20.5ZM9 10.5C8.45 10.5 8 10.95 8 11.5L8 36.5C8 37.05 8.45 37.5 9 37.5C9.55 37.5 10 37.05 10 36.5L10 11.5C10 10.95 9.55 10.5 9 10.5ZM24 11.5C23.45 11.5 23 11.95 23 12.5L23 35.5C23 36.05 23.45 36.5 24 36.5C24.55 36.5 25 36.05 25 35.5L25 12.5C25 11.95 24.55 11.5 24 11.5ZM32 18.5C31.45 18.5 31 18.95 31 19.5L31 28.5C31 29.05 31.45 29.5 32 29.5C32.55 29.5 33 29.05 33 28.5L33 19.5C33 18.95 32.55 18.5 32 18.5ZM39 11.5C38.45 11.5 38 11.95 38 12.5L38 35.5C38 36.05 38.45 36.5 39 36.5C39.55 36.5 40 36.05 40 35.5L40 12.5C40 11.95 39.55 11.5 39 11.5ZM47 1.5C46.45 1.5 46 1.95 46 2.5L46 47.5C46 48.05 46.45 48.5 47 48.5C47.55 48.5 48 48.05 48 47.5L48 2.5C48 1.95 47.55 1.5 47 1.5ZM16 0.5C15.45 0.5 15 0.95 15 1.5L15 47.5C15 48.05 15.45 48.5 16 48.5C16.55 48.5 17 48.05 17 47.5L17 1.5C17 0.95 16.55 0.5 16 0.5ZM55 11.5C54.45 11.5 54 11.95 54 12.5L54 36.5C54 37.05 54.45 37.5 55 37.5C55.55 37.5 56 37.05 56 36.5L56 12.5C56 11.95 55.55 11.5 55 11.5ZM63 18.5C62.45 18.5 62 18.95 62 19.5L62 29.5C62 30.05 62.45 30.5 63 30.5C63.55 30.5 64 30.05 64 29.5L64 19.5C64 18.95 63.55 18.5 63 18.5Z" />
	</symbol>

	<symbol id="prev" viewBox="0 0 30 37">
		<path d="M1.5 0.6C0.95 0.6 0.5 1.04 0.5 1.6L0.5 35.4C0.5 35.96 0.95 36.4 1.5 36.4C2.05 36.4 2.5 35.96 2.5 35.4L2.5 19.24C2.5 19.81 2.85 20.31 3.37 20.64L25.38 34.51C25.78 34.77 26.37 34.9 26.84 34.9C28.24 34.9 29.5 33.76 29.5 32.37L29.5 4.63C29.5 3.24 28.19 2.1 26.79 2.1C26.32 2.1 25.77 2.23 25.37 2.49L3.42 16.36C2.89 16.69 2.5 17.19 2.5 17.76L2.5 1.6C2.5 1.04 2.05 0.6 1.5 0.6ZM4.24 18.05L26.34 4.18C26.43 4.13 26.7 4.1 26.79 4.1C27.05 4.1 27.5 4.3 27.5 4.63L27.5 32.37C27.5 32.82 26.84 33.02 26.51 32.82L4.33 18.95C4.1 18.81 4.03 18.59 4.03 18.5C4.03 18.41 4.02 18.19 4.24 18.05Z" />
	</symbol>

	<symbol id="play" viewBox="0 0 28 33">
		<path d="M4.13 32.23L26.84 18.68C27.62 18.22 28.08 17.4 28.08 16.5C28.08 15.6 27.62 14.78 26.85 14.32L4.13 0.77C3.74 0.54 3.1 0.41 2.65 0.41C1.25 0.41 -0.08 1.55 -0.08 2.95L-0.08 30.05C-0.08 31.45 1.25 32.59 2.65 32.59C3.1 32.59 3.74 32.46 4.13 32.23ZM1.92 30.05L1.92 2.95C1.92 2.62 2.39 2.41 2.65 2.41C2.74 2.41 2.93 2.44 3.01 2.49L25.77 16.04C26.01 16.18 26.06 16.41 26.06 16.5C26.06 16.59 26.05 16.82 25.81 16.96L2.92 30.51C2.58 30.71 1.92 30.5 1.92 30.05Z" />
	</symbol>

	<symbol id="pause" viewBox="0 0 26 33">
		<path d="M10.5 2.42C10.5 1.08 9.42 0 8.08 0L2.92 0C1.58 0 0.5 1.08 0.5 2.42L0.5 30.58C0.5 31.92 1.58 33 2.92 33L8.08 33C9.42 33 10.5 31.92 10.5 30.58L10.5 2.42ZM8.5 30.58C8.5 30.81 8.31 31 8.08 31L2.92 31C2.69 31 2.5 30.81 2.5 30.58L2.5 2.42C2.5 2.19 2.69 2 2.92 2L8.08 2C8.31 2 8.5 2.19 8.5 2.42L8.5 30.58ZM25.5 2.42C25.5 1.08 24.42 0 23.08 0L17.92 0C16.58 0 15.5 1.08 15.5 2.42L15.5 30.58C15.5 31.92 16.58 33 17.92 33L23.08 33C24.42 33 25.5 31.92 25.5 30.58L25.5 2.42ZM23.5 30.58C23.5 30.81 23.31 31 23.08 31L17.92 31C17.69 31 17.5 30.81 17.5 30.58L17.5 2.42C17.5 2.19 17.69 2 17.92 2L23.08 2C23.31 2 23.5 2.19 23.5 2.42L23.5 30.58Z" />
	</symbol>

	<symbol id="next" viewBox="0 0 30 37">
		<path d="M28.5 36.4C29.05 36.4 29.5 35.96 29.5 35.4L29.5 1.6C29.5 1.04 29.05 0.6 28.5 0.6C27.95 0.6 27.5 1.04 27.5 1.6L27.5 17.6C27.5 17.12 26.88 16.71 26.42 16.42L4.04 2.41C3.65 2.17 3.31 2.04 2.85 2.04C1.49 2.04 0.5 3.14 0.5 4.49L0.5 32.51C0.5 33.86 1.46 34.96 2.82 34.96C3.28 34.96 3.66 34.83 4.05 34.59L26.46 20.58C26.91 20.3 27.5 19.88 27.5 19.4L27.5 35.4C27.5 35.96 27.95 36.4 28.5 36.4ZM25.25 18.89L2.92 32.89C2.84 32.94 2.9 32.96 2.82 32.96C2.63 32.96 2.5 32.82 2.5 32.51L2.5 4.49C2.5 4.18 2.63 4.04 2.82 4.04C2.9 4.04 2.91 4.06 2.99 4.11L25.28 18.12C25.47 18.23 25.48 18.41 25.48 18.5C25.48 18.59 25.43 18.77 25.25 18.89Z" />
	</symbol>

	<symbol id="repeat" viewBox="0 0 64 34">
		<path d="M7 1C7 0.45 7.45 0 8 0L52.91 0C55.16 0 57 1.69 57 3.94L57 22.44L62.29 17.14C62.68 16.75 63.32 16.75 63.71 17.14C64.1 17.53 64.1 18.17 63.71 18.56L56.71 25.56C56.53 25.74 56.28 25.85 56 25.85C55.72 25.85 55.47 25.74 55.29 25.56L48.29 18.56C47.9 18.17 47.9 17.53 48.29 17.14C48.68 16.75 49.32 16.75 49.71 17.14L55 22.44L55 3.94C55 2.79 54.06 2 52.91 2L8 2C7.45 2 7 1.55 7 1ZM1.71 16.56L7 11.26L7 29.76C7 32.01 8.84 34 11.09 34L56 34C56.55 34 57 33.55 57 33C57 32.45 56.55 32 56 32L11.09 32C9.94 32 9 30.91 9 29.76L9 11.26L14.29 16.56C14.49 16.75 14.74 16.85 15 16.85C15.26 16.85 15.51 16.75 15.71 16.56C16.1 16.17 16.1 15.53 15.71 15.14L8.71 8.14C8.53 7.96 8.28 7.85 8 7.85C7.72 7.85 7.47 7.96 7.29 8.14L0.29 15.14C-0.1 15.53 -0.1 16.17 0.29 16.56C0.68 16.95 1.32 16.95 1.71 16.56Z" />
	</symbol>

	<symbol id="random" viewBox="0 0 66 48">
		<path d="M0.5 40.15C0.5 39.6 0.95 39.15 1.5 39.15L13.83 39.15C15.29 39.15 16.65 38.55 17.68 37.52L45.91 9.25C47.31 7.85 49.18 7.15 51.16 7.15L62.09 7.15L56.79 1.78C56.4 1.39 56.4 0.68 56.79 0.29C57.18 -0.1 57.82 -0.1 58.21 0.29L65.21 7.29C65.39 7.47 65.5 7.72 65.5 8C65.5 8.28 65.39 8.53 65.21 8.71L58.21 15.72C58.01 15.91 57.76 16.02 57.5 16.02C57.24 16.02 56.99 15.94 56.79 15.74C56.4 15.35 56.4 14.76 56.79 14.37L62.09 9.15L51.16 9.15C49.71 9.15 48.35 9.68 47.32 10.7L19.09 38.9C17.69 40.3 15.82 41.15 13.83 41.15L1.5 41.15C0.95 41.15 0.5 40.7 0.5 40.15ZM1.5 9.15L13.49 9.15C15.14 9.15 16.75 9.74 17.92 10.91L25.79 18.74C25.99 18.94 26.24 19.02 26.5 19.02C26.76 19.02 27.01 18.91 27.21 18.72C27.6 18.33 27.6 17.69 27.21 17.3L19.33 9.5C17.77 7.94 15.7 7.15 13.49 7.15L1.5 7.15C0.95 7.15 0.5 7.6 0.5 8.15C0.5 8.7 0.95 9.15 1.5 9.15ZM56.79 47.71C56.99 47.9 57.24 48 57.5 48C57.76 48 58.01 47.9 58.21 47.71L65.21 40.71C65.39 40.53 65.5 40.28 65.5 40C65.5 39.72 65.39 39.47 65.21 39.29L58.21 32.29C57.82 31.9 57.18 31.9 56.79 32.29C56.4 32.68 56.4 33.39 56.79 33.78L62.09 39.15L51.51 39.15C49.83 39.15 48.26 38.42 47.08 37.24L39.21 29.33C38.82 28.94 38.18 28.92 37.79 29.31C37.4 29.7 37.4 30.33 37.79 30.72L45.67 38.66C47.23 40.22 49.3 41.15 51.51 41.15L62.09 41.15L56.79 46.37C56.4 46.76 56.4 47.32 56.79 47.71Z" />
	</symbol>

	<symbol id="logo" viewBox="0 0 512 512">
		<g>
			<g>
				<path d="M256,0C115.05,0,0,115.04,0,256c0,140.95,115.04,256,256,256c140.95,0,256-115.04,256-256C512,115.05,396.96,0,256,0z     M256,482C131.38,482,30,380.62,30,256S131.38,30,256,30s226,101.38,226,226S380.62,482,256,482z"/>
			</g>
			<g>
				<path d="M427.449,234.326c-103.108-47.405-220.979-61.332-331.905-39.216c-8.125,1.621-16.023-3.654-17.644-11.777    c-1.619-8.125,3.653-16.024,11.778-17.644c117.08-23.344,241.487-8.649,350.302,41.38c7.527,3.46,10.823,12.368,7.363,19.895    C443.873,234.512,434.953,237.777,427.449,234.326z"/>
			</g>
			<g>
				<path d="M364.781,370.615c-74.636-34.325-160.009-44.377-240.386-28.304c-8.128,1.624-16.026-3.645-17.65-11.768    c-1.624-8.124,3.645-16.026,11.768-17.65c86.544-17.305,178.455-6.486,258.804,30.466c7.526,3.461,10.821,12.369,7.36,19.896    C381.205,370.804,372.285,374.065,364.781,370.615z"/>
			</g>
			<g>
				<path d="M396.108,302.475c-88.844-40.871-190.556-52.845-286.396-33.713c-8.134,1.621-16.025-3.65-17.646-11.774    c-1.621-8.124,3.649-16.024,11.773-17.646c102.006-20.36,210.254-7.619,304.806,35.879c7.526,3.462,10.821,12.37,7.358,19.896    C412.533,302.664,403.611,305.929,396.108,302.475z"/>
			</g>
		</g>
	</symbol>

	<symbol id="radio" viewBox="0 0 66 55">
		<path d="M3.82 55L61.88 55C63.97 55 65.5 52.95 65.5 50.86L65.5 14.94C65.5 12.85 63.97 11 61.88 11L23.8 11L51.15 1.96C51.67 1.79 51.96 1.26 51.78 0.73C51.61 0.21 51.04 -0.13 50.52 0.04L17.48 11L3.82 11C1.74 11 0.5 12.85 0.5 14.94L0.5 50.86C0.5 52.95 1.74 55 3.82 55ZM64.5 50.22C64.5 51.2 63.7 52 62.72 52L4.28 52C3.3 52 2.5 51.2 2.5 50.22L2.5 14.78C2.5 13.8 3.3 13 4.28 13L62.72 13C63.7 13 64.5 13.8 64.5 14.78L64.5 50.22ZM60.5 33L60.5 19L33.5 19L33.5 33L60.5 33ZM35.5 21L58.5 21L58.5 31L48.68 31L51.63 26.83C51.96 26.38 51.88 25.64 51.43 25.31C50.99 24.97 50.37 25.25 50.03 25.69L46.18 31L35.5 31L35.5 21ZM5.57 20C5.57 19.45 6.02 19 6.57 19L28.7 19C29.25 19 29.7 19.45 29.7 20C29.7 20.55 29.25 21 28.7 21L6.57 21C6.02 21 5.57 20.55 5.57 20ZM5.57 26C5.57 25.45 6.02 25 6.57 25L28.7 25C29.25 25 29.7 25.45 29.7 26C29.7 26.55 29.25 27 28.7 27L6.57 27C6.02 27 5.57 26.55 5.57 26ZM5.57 32C5.57 31.45 6.02 31 6.57 31L28.7 31C29.25 31 29.7 31.45 29.7 32C29.7 32.55 29.25 33 28.7 33L6.57 33C6.02 33 5.57 32.55 5.57 32ZM5.57 37C5.57 36.45 6.02 36 6.57 36L28.7 36C29.25 36 29.7 36.45 29.7 37C29.7 37.55 29.25 38 28.7 38L6.57 38C6.02 38 5.57 37.55 5.57 37ZM5.57 43C5.57 42.45 6.02 42 6.57 42L28.7 42C29.25 42 29.7 42.45 29.7 43C29.7 43.55 29.25 44 28.7 44L6.57 44C6.02 44 5.57 43.55 5.57 43ZM53.6 36.05C51.52 36.05 49.83 37.74 49.83 39.81C49.83 41.89 51.52 43.58 53.6 43.58C55.67 43.58 57.36 41.89 57.36 39.81C57.36 37.74 55.67 36.05 53.6 36.05ZM53.6 41.58C52.62 41.58 51.83 40.79 51.83 39.81C51.83 38.84 52.62 38.05 53.6 38.05C54.57 38.05 55.36 38.84 55.36 39.81C55.36 40.79 54.57 41.58 53.6 41.58ZM39.77 36.05C37.69 36.05 36 37.74 36 39.81C36 41.89 37.69 43.58 39.77 43.58C41.84 43.58 43.53 41.89 43.53 39.81C43.53 37.74 41.84 36.05 39.77 36.05ZM39.77 41.58C38.79 41.58 38 40.79 38 39.81C38 38.84 38.79 38.05 39.77 38.05C40.74 38.05 41.53 38.84 41.53 39.81C41.53 40.79 40.74 41.58 39.77 41.58Z" />
	</symbol>

	<symbol id="likes" viewBox="0 0 64 58">
		<path d="M48 0.92C40.64 0.92 34.36 5.07 32 10.85C29.64 5.07 23.36 0.92 16 0.92C5.98 0.92 0 9.57 0 17.92C0 26.51 5.33 35.68 15.83 45.16C23.57 52.15 31.42 56.74 31.5 56.79L32 57.08L32.5 56.79C32.58 56.74 40.43 52.15 48.17 45.16C58.67 35.68 64 26.51 64 17.92C64 9.57 58.02 0.92 48 0.92ZM32 54.76C28.03 52.33 2 35.75 2 17.92C2 10.55 7.24 2.92 16 2.92C23.21 2.92 31 7.89 31 15.92L33 15.92C33 7.89 40.79 2.92 48 2.92C56.76 2.92 62 10.55 62 17.92C62 35.74 35.97 52.33 32 54.76ZM47 7.92C46.45 7.92 46 8.37 46 8.92C46 9.47 46.45 9.92 47 9.92C52.24 9.92 55.38 14.5 55.38 18.92C55.38 19.47 55.82 19.92 56.37 19.92C56.93 19.92 57.38 19.47 57.38 18.92C57.38 13.51 53.49 7.92 47 7.92Z" />
	</symbol>

	<symbol id="singers" viewBox="0 0 59 60">
		<path id="singers" class="shp0" d="M31.04 30.64C34.09 27.45 36 22.97 36 18C36 8.35 28.82 0.5 20 0.5C11.18 0.5 4 8.35 4 18C4 22.94 5.88 27.39 8.9 30.58C4.5 31.11 0 34.75 0 39.5L0 50.1C0 55.07 4.04 59.5 9 59.5L31 59.5C35.96 59.5 40 55.07 40 50.1L40 39.5C40 34.96 35.47 31.34 31.04 30.64ZM6 18C6 9.45 12.28 2.5 20 2.5C27.72 2.5 34 9.45 34 18C34 26.55 27.72 33.5 20 33.5C12.28 33.5 6 26.55 6 18ZM38 50.1C38 53.96 34.86 57.5 31 57.5L9 57.5C5.14 57.5 2 53.96 2 50.1L2 39.5C2 35.56 6.3 32.5 10 32.5C10.27 32.5 10.52 32.39 10.7 32.21C13.32 34.27 16.53 35.5 20 35.5C23.37 35.5 26.49 34.35 29.07 32.4C29.2 32.46 29.35 32.5 29.5 32.5C33.35 32.5 38 35.62 38 39.5L38 50.1ZM58 12.5L41 12.5C40.45 12.5 40 12.95 40 13.5C40 14.05 40.45 14.5 41 14.5L58 14.5C58.55 14.5 59 14.05 59 13.5C59 12.95 58.55 12.5 58 12.5ZM58 24.5C58 23.95 57.55 23.5 57 23.5L40 23.5C39.45 23.5 39 23.95 39 24.5C39 25.05 39.45 25.5 40 25.5L57 25.5C57.55 25.5 58 25.05 58 24.5ZM58 34.5L44 34.5C43.45 34.5 43 34.95 43 35.5C43 36.05 43.45 36.5 44 36.5L58 36.5C58.55 36.5 59 36.05 59 35.5C59 34.95 58.55 34.5 58 34.5ZM57 45.5L44 45.5C43.45 45.5 43 45.95 43 46.5C43 47.05 43.45 47.5 44 47.5L57 47.5C57.55 47.5 58 47.05 58 46.5C58 45.95 57.55 45.5 57 45.5Z" />
	</symbol>

	<symbol id="albums" viewBox="0 0 57 64">
		<path id="albums" class="shp0" d="M0.5 59.82C0.5 62.13 2.37 64 4.68 64L52.32 64C54.63 64 56.5 62.13 56.5 59.82L56.5 44.18C56.5 44.14 56.49 44.1 56.49 44.07C56.49 44.06 56.49 44.05 56.49 44.04L56.48 43.93C56.46 43.68 56.43 43.44 56.38 43.21L50.9 3.56C50.59 1.5 48.85 0 46.76 0L10.24 0C8.15 0 6.41 1.5 6.1 3.57L0.62 43.21C0.57 43.44 0.54 43.68 0.52 43.93L0.51 44.04C0.51 44.05 0.51 44.06 0.51 44.06C0.51 44.1 0.5 44.14 0.5 44.18L0.5 59.82ZM52.32 62L4.68 62C3.48 62 2.5 61.02 2.5 59.82L2.5 44.24L2.59 43.59C2.85 42.68 3.68 42 4.68 42L14.69 42C15.69 42 16.58 42.7 16.8 43.66C18.04 49.16 22.85 53 28.5 53C34.15 53 38.96 49.16 40.2 43.66C40.42 42.7 41.31 42 42.31 42L52.32 42C53.32 42 54.15 42.68 54.41 43.59L54.5 44.24L54.5 59.82C54.5 61.02 53.52 62 52.32 62ZM8.08 3.85C8.24 2.78 9.15 2 10.24 2L46.76 2C47.85 2 48.76 2.78 48.92 3.84L53.96 40.34C53.46 40.12 52.9 40 52.32 40L42.31 40C40.35 40 38.68 41.32 38.25 43.22C37.22 47.8 33.21 51 28.5 51C23.79 51 19.78 47.8 18.75 43.22C18.32 41.32 16.65 40 14.69 40L4.68 40C4.1 40 3.54 40.12 3.04 40.34L8.08 3.85ZM8.5 32L48.5 32C49.05 32 49.5 31.55 49.5 31C49.5 30.45 49.05 30 48.5 30L8.5 30C7.95 30 7.5 30.45 7.5 31C7.5 31.55 7.95 32 8.5 32ZM10.5 22L46.5 22C47.05 22 47.5 21.55 47.5 21C47.5 20.45 47.05 20 46.5 20L10.5 20C9.95 20 9.5 20.45 9.5 21C9.5 21.55 9.95 22 10.5 22ZM12.5 12L44.5 12C45.05 12 45.5 11.55 45.5 11C45.5 10.45 45.05 10 44.5 10L12.5 10C11.95 10 11.5 10.45 11.5 11C11.5 11.55 11.95 12 12.5 12Z" />
	</symbol>

	<symbol id="email" viewBox="0 0 65 39">
		<path d="M64.98 7.11C64.98 7.09 65 7.06 65 7.03L65 4.12L64.98 3.97C64.16 1.55 62.3 0 60.19 0L4.7 0C2.35 0 0 1.44 0 3.86L0 34.93C0 37.36 2.39 39 4.7 39L60.19 39C62.53 39 64.2 37.17 64.96 35.6L65 35.39L65 7.41C65 7.31 65.01 7.21 64.98 7.11ZM63.02 7.33C63.02 7.36 63 7.38 63 7.41L63 34.91C63 35.14 62.79 35.35 62.63 35.56L41.89 15.99L61.98 2.83C61.99 2.82 61.96 2.81 61.97 2.8C62.41 3.22 63 3.78 63 4.46L63 7.03C63 7.14 62.99 7.24 63.02 7.33ZM5.27 2L59.62 2L33.67 19.02C32.92 19.5 31.96 19.5 31.23 19.02L5.27 2ZM2 3.86C2 3.35 2.27 2.93 2.71 2.61C2.78 2.69 2.82 2.77 2.92 2.83L23.33 16.22L2.31 35.85C2.1 35.58 2 35.27 2 34.93L2 3.86ZM4.7 37C4.49 37 4.27 36.96 4.06 36.92L25.04 17.35L30.14 20.7C30.84 21.15 31.64 21.37 32.44 21.37C33.25 21.37 34.05 21.14 34.76 20.69L40.2 17.12L61.1 36.82C60.81 36.93 60.51 37 60.19 37L4.7 37Z" />
	</symbol>

	<symbol id="pass" viewBox="0 0 57 22">
		<path d="M55.5 9.12L18.19 9.12C17.68 4.49 13.93 0.88 9.37 0.88C4.48 0.88 0.5 5.05 0.5 10.18C0.5 15.31 4.48 19.49 9.37 19.49C13.96 19.49 17.75 15.81 18.2 11.12L45.5 11.12L45.5 17.12C45.5 17.68 45.95 18.12 46.5 18.12C47.05 18.12 47.5 17.68 47.5 17.12L47.5 11.12L54.5 11.12L54.48 20C54.48 20.55 54.93 21.12 55.48 21.12L55.48 21.12C56.04 21.12 56.48 20.55 56.48 20L56.5 10.19C56.5 9.92 56.4 9.64 56.21 9.45C56.02 9.26 55.77 9.12 55.5 9.12ZM9.37 17.49C5.58 17.49 2.5 14.21 2.5 10.18C2.5 6.15 5.58 2.88 9.37 2.88C13.17 2.88 16.25 6.15 16.25 10.18C16.25 14.21 13.17 17.49 9.37 17.49Z" />
	</symbol>

	<symbol id="signin" viewBox="0 0 54 58">
		<path id="signin" class="shp0" d="M3.74 58L50.26 58C52.11 58 53.56 56.82 53.56 55.32L53.56 12.9C53.56 11.48 52.44 10 50.56 10L34.56 10C34.01 10 33.56 10.45 33.56 11C33.56 11.55 34.01 12 34.56 12L50.56 12C51.3 12 51.56 12.54 51.56 12.9L51.56 55.32C51.56 55.59 51.04 56 50.26 56L3.74 56C3.03 56 2.56 55.4 2.56 55L2.44 12.9C2.44 12.53 2.84 12 3.56 12L19.56 12C20.12 12 20.56 11.55 20.56 11C20.56 10.45 20.12 10 19.56 10L3.56 10C1.63 10 0.44 11.51 0.44 12.9L0.56 55C0.56 56.42 1.87 58 3.74 58ZM28.56 29L28.56 1C28.56 0.45 28.12 0 27.56 0C27.01 0 26.56 0.45 26.56 1L26.56 28.47L19.27 21.17C18.88 20.78 18.25 20.78 17.86 21.17C17.46 21.57 17.46 22.2 17.86 22.59L27.38 32.11C27.57 32.31 27.83 32.41 28.09 32.41C28.13 32.41 28.18 32.39 28.22 32.38C28.27 32.39 28.31 32.41 28.36 32.41C28.61 32.41 28.87 32.31 29.06 32.11L38.59 22.59C38.98 22.2 38.98 21.57 38.59 21.17C38.2 20.78 37.57 20.78 37.17 21.17L28.22 30.13L27.99 29.9C28.33 29.73 28.56 29.4 28.56 29Z" />
	</symbol>

	<symbol id="signup" viewBox="0 0 59 60">
		<path id="signup" class="shp0" d="M36 1.5C36 2.05 36.45 2.5 37 2.5L55.59 2.5L25.17 32.92C24.78 33.31 24.78 33.94 25.17 34.33C25.36 34.53 25.62 34.62 25.87 34.62C26.13 34.62 26.39 34.53 26.58 34.33L57 3.91L57 22.5C57 23.05 57.45 23.5 58 23.5C58.55 23.5 59 23.05 59 22.5L59 0.5L37 0.5C36.45 0.5 36 0.95 36 1.5ZM58 34.5C57.45 34.5 57 34.95 57 35.5L57 57.5L2 57.5L2 2.5L23 2.5C23.55 2.5 24 2.05 24 1.5C24 0.95 23.55 0.5 23 0.5L0 0.5L0 59.5L59 59.5L59 35.5C59 34.95 58.55 34.5 58 34.5Z" />
	</symbol>
</svg>
